# xmcd
#
# Track frame offsets: 
#        150
#        13190
#        24511
#        34027
#        43603
#        53339
#        63920
#        76553
#        89696
#        99518
#        111362
#        121684
#        131535
#        142095
#        150726
#
# Disc length: 2161 seconds
#
# Revision: 0
# Processed by: cddbd v1.5.2PL0 Copyright (c) Steve Scherf et al.
# Submitted via: ExactAudioCopyFreeDBPlugin 1.0
#
DISCID=b8086f0f
DTITLE=Jetaways - Rockin' The Night Away
DYEAR=2013
DGENRE=Country
TTITLE0=Rockin' The Night Away
TTITLE1=Live It Up
TTITLE2=She's Mine
TTITLE3=Because Of You
TTITLE4=Cindy Marie
TTITLE5=I'll Be Leavin' You
TTITLE6=I Love You
TTITLE7=My Beautiful Girl
TTITLE8=Be Boppin' Baby
TTITLE9=I Thought I Told You
TTITLE10=Changed My Mind
TTITLE11=You Gotta Get Ready
TTITLE12=Savoy Club Stomp
TTITLE13=I Gotta Feelin'
TTITLE14=BONUS
EXTD=
EXTT0=
EXTT1=
EXTT2=
EXTT3=
EXTT4=
EXTT5=
EXTT6=
EXTT7=
EXTT8=
EXTT9=
EXTT10=
EXTT11=
EXTT12=
EXTT13=
EXTT14=
PLAYORDER=
